<svg width="16" height="18" viewBox="0 0 16 18" fill="none" xmlns="http://www.w3.org/2000/svg">
<path d="M0 15.5395V6.53946C0 6.22279 0.0709998 5.92279 0.213 5.63946C0.355 5.35613 0.550667 5.12279 0.8 4.93946L6.8 0.439459C7.15 0.172793 7.55 0.0394592 8 0.0394592C8.45 0.0394592 8.85 0.172793 9.2 0.439459L15.2 4.93946C15.45 5.12279 15.646 5.35613 15.788 5.63946C15.93 5.92279 16.0007 6.22279 16 6.53946V15.5395C16 16.0895 15.804 16.5605 15.412 16.9525C15.02 17.3445 14.5493 17.5401 14 17.5395H11C10.7167 17.5395 10.4793 17.4435 10.288 17.2515C10.0967 17.0595 10.0007 16.8221 10 16.5395V11.5395C10 11.2561 9.904 11.0188 9.712 10.8275C9.52 10.6361 9.28267 10.5401 9 10.5395H7C6.71667 10.5395 6.47933 10.6355 6.288 10.8275C6.09667 11.0195 6.00067 11.2568 6 11.5395V16.5395C6 16.8228 5.904 17.0605 5.712 17.2525C5.52 17.4445 5.28267 17.5401 5 17.5395H2C1.45 17.5395 0.979333 17.3438 0.588 16.9525C0.196666 16.5611 0.000666667 16.0901 0 15.5395Z" fill="black"/>
</svg>
