<svg width="20" height="21" viewBox="0 0 20 21" fill="none" xmlns="http://www.w3.org/2000/svg">
<path d="M17.0341 3.44945C16.1171 2.52356 15.0251 1.78942 13.8216 1.28981C12.6181 0.790211 11.3271 0.535135 10.0241 0.539452C4.56406 0.539452 0.114058 4.98945 0.114058 10.4495C0.114058 12.1995 0.574058 13.8995 1.43406 15.3995L0.0340576 20.5395L5.28406 19.1595C6.73406 19.9495 8.36406 20.3695 10.0241 20.3695C15.4841 20.3695 19.9341 15.9195 19.9341 10.4595C19.9341 7.80945 18.9041 5.31945 17.0341 3.44945ZM10.0241 18.6895C8.54406 18.6895 7.09406 18.2895 5.82406 17.5395L5.52406 17.3595L2.40406 18.1795L3.23406 15.1395L3.03406 14.8295C2.21161 13.5165 1.77498 11.9987 1.77406 10.4495C1.77406 5.90945 5.47406 2.20945 10.0141 2.20945C12.2141 2.20945 14.2841 3.06945 15.8341 4.62945C16.6017 5.39332 17.21 6.30199 17.6237 7.30278C18.0374 8.30357 18.2483 9.37654 18.2441 10.4595C18.2641 14.9995 14.5641 18.6895 10.0241 18.6895ZM14.5441 12.5295C14.2941 12.4095 13.0741 11.8095 12.8541 11.7195C12.6241 11.6395 12.4641 11.5995 12.2941 11.8395C12.1241 12.0895 11.6541 12.6495 11.5141 12.8095C11.3741 12.9795 11.2241 12.9995 10.9741 12.8695C10.7241 12.7495 9.92406 12.4795 8.98406 11.6395C8.24406 10.9795 7.75406 10.1695 7.60406 9.91945C7.46406 9.66945 7.58406 9.53945 7.71406 9.40945C7.82406 9.29945 7.96406 9.11945 8.08406 8.97945C8.20406 8.83945 8.25406 8.72945 8.33406 8.56945C8.41406 8.39945 8.37406 8.25945 8.31406 8.13945C8.25406 8.01945 7.75406 6.79945 7.55406 6.29945C7.35406 5.81945 7.14406 5.87945 6.99406 5.86945H6.51406C6.34406 5.86945 6.08406 5.92945 5.85406 6.17945C5.63406 6.42945 4.99406 7.02945 4.99406 8.24945C4.99406 9.46945 5.88406 10.6495 6.00406 10.8095C6.12406 10.9795 7.75406 13.4795 10.2341 14.5495C10.8241 14.8095 11.2841 14.9595 11.6441 15.0695C12.2341 15.2595 12.7741 15.2295 13.2041 15.1695C13.6841 15.0995 14.6741 14.5695 14.8741 13.9895C15.0841 13.4095 15.0841 12.9195 15.0141 12.8095C14.9441 12.6995 14.7941 12.6495 14.5441 12.5295Z" fill="black"/>
</svg>
